<svg width="1505" height="1601" viewBox="0 0 1505 1601" fill="none" xmlns="http://www.w3.org/2000/svg">
<path fill="black" d="M715.013 154.912C708.95 153.466 710.744 152.399 706.018 149.783C703.855 163.825 704.381 166.77 706.986 180.469C709.185 191.449 702.406 179.215 705.633 190.397C707.245 195.931 709.871 196.323 709.802 202.922C702.361 200.941 702.19 198.556 696.668 195.96C690.655 215.441 697.988 227.093 695.543 238.867C694.243 245.67 698.769 251.504 700.858 261.145C694.803 260.04 684.259 251.992 679.524 249.035C673.146 270.026 684.395 293.246 685.88 309.732C677.449 309.139 674.343 302.959 667.9 299.929C663.603 310.383 668.011 323.357 671.127 334.656C674.127 345.844 666.064 336.939 672.182 350.099C674.338 354.597 678.332 359.846 679.223 363.805C666.604 359.332 666.316 356.837 657.894 351.922C653.866 372.156 654.932 367.096 666.715 411.081C658.914 408.312 656.273 402.575 650.155 398.856C647.653 413.02 650.187 423.764 655.023 435.59C652.291 440.206 646.936 435.103 654.72 451.293C657.474 457.027 660.859 460.585 661.814 467.159C653.15 466.344 650.426 461.861 643.945 457.24C640.122 454.375 641.332 452.64 639.354 455.531C633.164 462.96 642.981 487.973 644.659 496.236L638.355 494.227C639.201 505.694 646.429 513.027 649.715 521.933C637.424 521.661 634.354 516.958 627.867 512.11C622.38 534.535 632.913 532.689 634.151 550.971C635.334 566.98 645.858 578.896 646.058 587.194C634.969 584.846 625.6 573.698 621.048 573.58C619.811 588.282 628.18 600.478 631.183 611.779C631.072 611.895 630.612 611.679 630.617 611.906C629.463 615.915 629.94 612.15 629.261 612.28C629.15 612.396 628.698 612.521 628.584 612.524L626.779 613.136C629.957 622.272 636.341 627.578 638.24 635.607C626.901 632.355 623.587 626.975 618.073 624.72C616.045 639.669 620.672 642.856 623.796 654.496C625.167 659.467 625.199 665.495 626.667 669.782C628.631 675.763 630.697 676.509 632.736 680.896C624.083 680.536 622.387 676.255 617.592 670.797C611.418 678.908 617.79 697.862 619.934 706.569C621.455 713.015 620.33 718.275 623.337 725.026C625.745 730.541 629.462 733.75 630.273 739.076C620.393 734.992 613.706 731.287 606.413 726.003C607.138 741.909 613.904 748.911 617.857 761.896C622.314 776.916 629.661 789.136 631.528 795.802C625.825 795.143 618.099 790.78 614.626 788.248C614.045 816.015 648.222 846.582 649.762 853.824C643.702 852.492 633.708 848.411 629.552 845.895C642.242 887.408 675.014 905.148 644.736 895.347L661.901 927.917C668.237 935.953 679.219 947.972 682.526 957.788C675.906 956.81 671.869 954.519 664.408 956.405L664.446 957.996C665.416 960.475 663.745 957.217 665.05 959.46C665.05 959.46 696.994 993.316 702.541 1009.51C697.978 1008.94 695.92 1008.53 693.021 1006.21C693.894 1018.82 715.13 1022.17 724.633 1071.88C729.196 1095.99 733.973 1138.42 731.045 1163.17C724.588 1161.9 690.539 1108.07 689.768 1107.07C675.447 1088.65 684.929 1099.79 677.66 1086.09C672.772 1076.77 670.176 1077.63 666.548 1063.95C663.922 1054.12 659.465 1048.54 657.105 1040.29C649.086 1012.5 654.211 1025.45 639.188 990.681C636.12 995.532 637.361 999.824 633.451 1002.76C629.973 995.339 629.718 984.767 626.562 976.541C620.968 961.549 622.501 963.786 621.887 947.764C618.673 951.254 618.281 953.879 614.368 956.703C609.895 950.442 610.514 933.707 607.802 925.014C603.957 911.799 601.618 909.126 602.739 894.313C597.811 898.34 597.075 902.676 591.61 904.477C589.31 898.732 590.649 888.235 589.781 880.522C589.667 880.525 589.437 880.417 589.329 880.647L586.03 880.613C583.286 865.893 581.335 851.04 575.929 839.114C571.988 845.465 568.412 852.83 564.449 858.272C562.86 855.014 559.031 850.06 561.054 830.715C551.354 827.907 554.223 818.975 551.499 811.837C549.798 807.328 543.299 797.249 540.458 792.654C538.183 797.372 537.671 804.436 533.748 806.806L530.582 793.461C524.697 789.963 531.405 794.579 526.121 792.431C522.205 776.261 513.164 764.536 506.782 749.904C503.484 754.647 501.514 762.543 496.004 765.178C494.784 742.914 487.286 724.442 470.655 709.261C467.18 722.407 466.812 726.576 462.238 728.118C461.211 709.148 450.928 688.355 439.542 673.729C433.178 679.782 436.862 691.912 428.139 696.07C428.214 685.035 428.854 673.873 424.864 664.074C422.817 668.787 424.051 668.075 420.473 670.663C414.015 662.288 416.529 643.916 398.108 634.692C397.439 639.94 396.88 645.072 394.383 650.023C391.992 654.63 395.672 651.584 391.055 653.516C389.018 649.243 389.317 642.753 388.062 637.892C386.677 632.352 384.508 627.286 382.687 622.553C382.465 622.786 382.127 622.908 382.024 623.365C381.919 623.709 381.58 623.831 381.472 624.061C381.174 624.219 378.062 628.176 377.825 628.471C365.705 611.703 372.65 611.99 353.36 595.053C350.45 601.72 349.568 612.319 344.649 615.85C344.53 615.625 335.986 591.491 335.731 590.36C326.404 590.358 327.761 585.32 321.894 577.841C317.432 572.034 312.537 567.148 306.552 564.221C305.037 567.442 300.714 581.537 299.61 582.928C293.307 576.256 292.798 559.889 284.31 556.91C279.489 555.093 283.006 559.444 278.571 554.774C274.25 550.101 274.758 547.587 268.402 543.418C265.561 541.622 266.182 542.173 263.128 536.948C258.951 542.963 259.039 546.601 255.99 552.248C246.711 535.888 257.459 552.388 241.715 526.319C236.341 529.861 242.097 528.016 236.238 530.318C232.195 523.023 219.394 511.048 210.448 507.965L208.739 521.996C205.487 519.738 182.775 488.852 166.219 480.37C165.506 483.799 165.372 487.67 163.502 490.331C153.741 486.472 145.731 475.064 132.746 469.576C105.739 458.058 60.258 416.275 35.283 408.803C43.666 428.378 107.247 476.42 137.451 513.708L132.548 517.921C139.129 521.97 148.14 532.445 153.409 538.687C159.266 545.711 154.095 543.561 152.922 546.774C155.83 549.434 157.706 551.777 160.941 553.86C165.448 556.822 167.5 557 170.213 561.029C166.076 563.972 157.986 563.371 153.33 563.711C160.841 582.228 179.23 592.228 181.981 596.232L174.861 598.11C182.069 609.31 200.631 610.227 204.336 617.644L183.767 618.368C187.157 631.594 196.546 638.874 208.489 643.59L202.796 648.05C207.877 651.226 210.414 652.643 216.496 654.885C222.808 657.235 228.481 656.643 231.987 660.539C231.651 660.775 231.191 660.558 231.089 661.016L209.077 663.253C212.138 672.278 225.007 687.095 232.603 690.779C231.13 695.705 234.441 691.531 228.258 694.524C232.801 698.964 233.422 701.11 240.335 704.81C245.289 707.42 253.623 708.698 255.89 713.079C251.398 715.462 241.847 715.579 236.035 715.151C239.073 727.93 249.604 735.41 259.98 741.188C258.937 745.08 254.82 744.156 262.965 747.03C267.096 748.523 272.458 749.189 275.704 751.727C275.482 751.96 275.138 751.854 274.919 752.201C274.455 753.988 258.468 756.963 257.182 757.179C262.918 768.642 273.197 775.105 283.168 782.939C289.197 787.684 284.362 785.299 288.321 789.07C291.231 791.843 297.852 792.821 302.037 796.587C298.576 799.287 282.357 801.157 277.815 801.494C288.844 810.782 283.931 814.54 304.237 821.784C311.237 824.345 306.49 825.597 305.438 829.148C310.14 830.741 330.704 839.23 332.378 842.601C326.314 845.818 313.111 845.455 305.725 845.747C310.641 856.206 318.339 859.433 327.59 865.692C332.447 868.987 334.783 871.547 340.314 874.484C345.04 877.1 351.547 878.08 351.784 883.193L337.4 885.701C342.111 900.225 391.69 919.178 394.349 921.974C389.979 924.695 381.922 925.459 376.252 926.164C390.077 942.891 401.146 939.667 411.815 948.167C412.856 949.059 412.615 950.155 419.635 951.732C451.908 962.791 447.048 960.622 448.81 963.539C444.107 966.61 433.108 968.013 426.396 967.947C440.565 984.78 459.973 983.06 482.467 991.389C480.688 997.801 478.241 995.358 473.019 1000.49C486.153 1007.45 516.965 1016.38 531.092 1022.06C528.343 1026 520.657 1028 517.199 1030.81C532.572 1031.58 547.882 1043.84 562.747 1047.12C564.791 1047.58 567.394 1047.73 569.763 1050.36C568.143 1053.93 567.35 1054.06 564.1 1056.07C578.234 1057.32 588.518 1064.01 600.68 1068.38C609.549 1071.68 607.443 1071.04 608.972 1072.62C609.202 1072.73 609.438 1073.06 609.557 1073.29C616.537 1079.71 628.963 1080.89 653.752 1099.52C654.752 1100.26 680.981 1118.27 690.089 1130.03C696.788 1138.97 719.163 1156.51 720.081 1166.27C698.347 1165.89 640.996 1150.67 623.742 1142.67L595.466 1130.38C589.993 1129.83 561.196 1105.39 554.03 1100.67L554.139 1109.88C545.191 1107.51 504.734 1076.66 503.732 1076.07L504.228 1087.2C492.009 1083.32 468.605 1061.69 455.447 1059.49L457.213 1071.39C448.374 1072.74 435.734 1062.7 429.619 1059.09C423.504 1055.48 405.173 1050.01 402.465 1046.21L405.176 1059.57C400.041 1058.89 352.495 1039.91 347.303 1036.85C348.031 1043.43 350.67 1044.39 351.757 1051.76C345.577 1050.2 345.065 1047.82 339.424 1045C334.706 1042.73 329.449 1041.72 324.296 1040.25C313.756 1037.09 307.067 1033.27 295.287 1030.6C296.721 1038.18 301.389 1043.08 304.287 1050.06C299.394 1049.95 272.693 1032.28 240.014 1030.8C243.337 1036.52 248.57 1041.28 250.21 1047.95C246.329 1047.36 226.785 1038.74 223.539 1036.2C219.363 1037.55 222.906 1038.26 218.725 1039.39C207.986 1032.71 198.635 1031.68 183.702 1030.33C186.5 1037.89 189.916 1038.03 190.812 1046.88C176.127 1041.66 141.873 1031.46 126.075 1031.95L130.29 1041.63C86.065 1030.86 93.296 1037.8 64.761 1031.61C50.126 1028.44 11.59 1019.93 0.0869751 1028.74C7.24697 1033.23 48.2 1042.93 60.847 1048.54L89.697 1061.04C104.55 1068.53 116.516 1069.49 120.314 1071.33C118.386 1076.27 118.739 1072.05 114.18 1076.37C127.143 1080.95 140.868 1088.81 154.938 1092.11C160.2 1093.35 166.555 1092.74 171.365 1094.1C170.471 1099.47 162.777 1101.13 159.476 1105.76C174.754 1111.99 195.322 1115.93 214.747 1114.89C213.991 1117.55 216.578 1115.14 201.963 1127.14C214.767 1134.57 221.222 1133.39 238.192 1134.34C237.947 1138.33 236.929 1138.58 235.401 1141.23C252.404 1143.55 269.035 1149.29 286.511 1147.62C289.461 1147.32 291.161 1147.05 293.129 1148.48C277.848 1161.33 277.176 1154.94 273.909 1162.71C296.178 1171.16 317.434 1165.87 341.037 1163.59C340.115 1167.82 329.522 1176.61 326.649 1180.09C363.65 1190.35 407.487 1160.99 389.271 1182.79C386.506 1186.04 383.803 1187.13 382.526 1190.8C396.522 1191.03 426.472 1183.14 438.878 1178.75C438.003 1184.91 433.022 1190.6 429.597 1194.78C454.641 1195.66 465.323 1185.84 484.579 1182.54C483.79 1187.56 481.985 1188.17 480.279 1192.88C501.599 1194.98 524.403 1183.17 539.712 1176.54L534.577 1189.97C551.992 1185.8 545.003 1183.69 572.896 1180.06C577.432 1179.5 582.953 1177.32 587.752 1178.23C598.945 1182.03 665.151 1171.24 666.183 1171.44C675.556 1173.38 662.722 1174.14 675.118 1174.07C683.305 1173.99 690.331 1172.91 699.211 1173.26C695.548 1176.99 650.885 1187.96 645.8 1189.34C626.876 1194.56 626.285 1201.53 591.336 1204.19C590.143 1206.6 592.362 1204.28 591.427 1207.94C570.926 1211.5 559.696 1217.46 538.846 1220.69C541.437 1224.38 542.203 1223.12 543.796 1227.85L537.377 1230.51C508.219 1238.27 502.982 1247.49 488.814 1249.54C491.949 1252.19 493.887 1252.38 496.124 1255.51C492.996 1257.86 453.615 1270.86 446.73 1273.08L455.234 1281.4L399.676 1312.2L403.201 1316.89C399.529 1320.28 391.544 1324 387.314 1327.85C339.876 1374.18 340.041 1371.93 322.619 1399.48C316.378 1409.53 305.107 1423.22 307.859 1438.28C314.37 1434.71 337.144 1398.1 363.676 1380.52C381.14 1368.95 402.82 1362.4 422.635 1353.96C429.617 1351.06 436.092 1346.01 441.732 1344.06L442.22 1354.85C453.783 1348.54 464.98 1341.22 476.779 1335.25C483.184 1332.02 488.61 1330.64 494.883 1326.62C500.82 1322.84 505.341 1316.93 510.517 1314.64L510.831 1332.38C526.361 1325.88 544.033 1297.67 556.778 1294.53L556.985 1307.83C565.01 1301.04 564.013 1297.43 587.343 1279.12C594.04 1273.84 615.878 1255 621.504 1252.48L618.624 1283.94C626.152 1280.12 635.054 1262.5 640.402 1253.16C649.561 1236.79 658.609 1229.97 670.484 1217.74C688.932 1198.72 676.711 1203.72 707.169 1187.28C713.455 1183.83 717.621 1177.36 721.908 1175.9C730.802 1186.26 721.161 1258.03 718.985 1276.28C710.206 1352.81 711.925 1454.16 707.827 1544.41C707.414 1555.57 703.257 1590.7 704.45 1597.72C713.166 1600.7 718.201 1601.94 727.772 1597.96C730.085 1571.48 728.383 1197.9 749.949 1183.18C755.712 1186.34 778.688 1219.34 791.949 1231.53C805.905 1244.27 805.821 1250.19 816.101 1261.43L817.28 1249C821.979 1250.48 841.204 1269.47 844.93 1273.02C853.426 1281 860.789 1293.9 872.729 1298.51C870.022 1290.04 866.993 1287.04 866.832 1275.67C871.526 1276.92 871.558 1278.29 874.605 1281.97C890.845 1302.25 913.511 1310.39 929.709 1326.59L925.326 1305.2C925.438 1305.22 965.782 1343.54 976.704 1346.27L972.508 1327.94C977.978 1328.38 1010.58 1354.78 1022.06 1359.16C1021.01 1353.62 1016.02 1344.64 1019.06 1338.88C1024 1340.8 1027.63 1345.15 1032.59 1347.99C1050.23 1357.92 1066.69 1360.14 1079.16 1368.93L1080.24 1366.41C1081.2 1363.88 1079.99 1365.5 1081.52 1363.19C1177.72 1393.99 1208.56 1434.73 1225.52 1443.31C1219.7 1412.71 1177.17 1382.04 1110.51 1329.62C1101.58 1323.31 1107.47 1321.86 1078.07 1309.7C1078.86 1304.68 1083.64 1304.79 1088.7 1302.62C1079.13 1297.16 1065.59 1292.14 1055.11 1286.82C1040.37 1279.22 1037.88 1275.18 1017.7 1273.17C1020.78 1268.77 1025.28 1266.62 1028.94 1262.89C1021.63 1256.81 1009.1 1255.97 997.671 1253.75C984.53 1251.22 979.321 1247.48 964.386 1246.02C964.891 1243.39 970.814 1239.04 973.225 1235.23C960.622 1231.44 929.186 1224.92 915.21 1225.48L921.076 1218.74C912.4 1212.7 874.231 1209.98 865.312 1208.03C865.193 1207.81 865.174 1207.01 865.179 1207.24L866.02 1204.38C838.35 1197.29 866.642 1201.15 809.655 1192.32C780.767 1187.67 776.434 1182.54 755.035 1177.14C757.719 1175.26 758.066 1175.48 762.377 1175.03C788.916 1171.89 784.591 1171.76 810.367 1174.67C816.868 1175.42 823.461 1175.26 829.968 1176.24C841.382 1177.9 886.671 1188.18 895.869 1192.28L897.212 1186.68L956.479 1201.17L952.323 1189.21C965.589 1192.19 963.941 1194.62 984.937 1197.41C996.235 1198.96 1007.2 1205.4 1019.09 1203.53C1016.28 1200.07 1010.11 1194.19 1009.16 1187.61C1012.98 1188.03 1055.61 1198.73 1074.06 1195.26C1071.55 1190.43 1065.67 1187.05 1063.46 1180.16C1085.96 1180.87 1078.78 1186.99 1138.47 1182.67C1135.57 1180.13 1126.59 1171.02 1124.79 1167.08L1130.01 1166.5C1137.31 1167.69 1145.57 1170.33 1153.86 1169.9C1159.88 1169.64 1165.65 1168.14 1171.56 1168.11C1179.64 1168.14 1179.93 1170.98 1188.11 1170.33C1184.73 1157.56 1171.86 1152.29 1168.49 1144.53C1174.76 1145.06 1180.39 1147.54 1186.07 1147.29C1213.52 1145.95 1215.04 1148.81 1241.46 1137.65C1237.08 1130.59 1225.48 1125.98 1225.07 1118.37C1235.37 1120.96 1244.1 1119.73 1252.51 1114.86C1264.73 1107.74 1269.54 1108.88 1283.64 1108.65C1282.14 1098.45 1276.14 1094.73 1274.84 1088.05C1288.98 1089.75 1325.34 1083.42 1334.04 1066.83C1322.8 1064.56 1320.85 1064.14 1319.66 1060.35C1337.87 1060.48 1358.74 1044.17 1378.87 1039.13C1376.9 1037.81 1373.77 1035.27 1371.91 1033.72C1373.35 1032.21 1393.37 1027.52 1404.69 1020.42C1420.94 1010.46 1432.35 1010.13 1439.21 1008.67C1446.79 1007.01 1439.09 1008.45 1446.39 1004.63C1455.13 999.993 1488.55 992.617 1504.51 981.048C1483.89 979.499 1469.54 983.712 1450.27 986.452C1440.87 987.816 1431.63 987.016 1422.33 988.036C1415.19 988.891 1410.66 994.573 1404.68 991.647C1399.73 989.264 1408.6 989.277 1399.61 988.926C1374.47 988.964 1365.99 995.879 1346.4 999.309L1350.43 987.155C1335.65 987.512 1330.14 994.697 1318.01 996.582L1316.25 989.459C1308.12 992.157 1299.66 994.75 1290.84 997.124C1280.78 999.755 1275.87 1003.63 1267.65 1006.78C1267.46 999.167 1271.23 994.981 1274.42 990.469C1251.86 989.902 1223.73 1009.63 1215.26 1013.62L1218.57 995.343C1200.34 998.74 1190.64 1011.26 1176.07 1015.7L1174.04 1011.77L1153.1 1029.8C1153.93 1021.93 1157.77 1016.26 1157.03 1008.89C1115.75 1030.03 1129.2 1024.01 1115.51 1027.52C1109.09 1029.44 1104.64 1037.74 1097.84 1040C1099.15 1032.92 1101.74 1031.95 1102.1 1023.41C1089.22 1027.13 1080.02 1032.01 1070.43 1040.09C1065.52 1044.19 1066.64 1043.26 1061.39 1042.7C1057.76 1047.91 1054.01 1052.43 1045.99 1054.9L1046.41 1043.97C1042.62 1045.37 1045.38 1044.08 990.352 1077.63L992.024 1066.78C981.083 1070.57 945.47 1103.05 937.205 1104.62L937.477 1092.32C936.477 1093.03 900.787 1117.86 888.775 1124.44C886.369 1123.7 887.37 1122.77 884.909 1119.75C834.901 1145.88 860.838 1136.76 788.637 1160.18C781.092 1163.32 760.419 1169.16 751 1170.07C758.197 1148.13 828.004 1088.38 889.567 1072.44C898.384 1070.18 910.78 1070.11 916.792 1064.73C913.651 1061.85 909.188 1060.71 906.491 1057.36C908.277 1055.95 935.519 1048.92 940.474 1046.87C945.767 1044.7 950.495 1042.65 956.018 1040.58C960.981 1038.87 968.925 1038.11 973.525 1035.49C968.628 1032.11 970.978 1034.37 965.159 1028.19L1030.36 1010.58C1029.78 1010.14 1025.25 1006.15 1022.83 1004.73C1019.37 1002.88 1016.16 1001.82 1013.5 999.84C1016.94 996.231 1026.13 995.44 1030.99 994.072C1043.08 990.709 1051.47 985.161 1062.94 979.766C1067.33 977.727 1075.92 975.586 1079.06 973.576C1072.72 969.976 1062.82 969.76 1058 963.62C1074.46 962.085 1079 957.085 1091.73 951.773C1103.32 946.943 1115.81 945.96 1122.99 937.142C1115.29 934.275 1106.93 935.2 1102.8 930.122C1107.82 925.793 1118.27 925.313 1125.41 924.117C1124.69 920.938 1124.29 921.851 1125.05 918.893C1139.21 915.323 1147.16 911.046 1160.94 897.554C1150.35 897.241 1141.98 899.263 1134.66 892.729C1139.19 885.976 1161.69 885.211 1160.08 876.306C1172.17 872.943 1195.99 860.653 1200.1 852.137C1187.13 850.077 1192.25 850.798 1180.53 847.036C1175.71 845.332 1177.69 847.218 1175.1 843.641C1177.04 841.962 1175.46 842.295 1186.27 839.618C1190.45 838.493 1195.07 836.903 1199.03 836.011C1196.9 832.65 1196.81 833.676 1195.14 830.191C1202.68 826.824 1228.75 809.02 1232.47 803.13C1227.17 800.073 1207.58 799.067 1205.77 794.903C1211.91 791.324 1214.27 794.375 1234.11 781.366L1228.81 778.537C1233.95 773.141 1241.72 774.425 1257.23 754.534C1249.67 749.173 1233.95 756.056 1227.36 751.502C1233.83 745.311 1253.24 743.976 1251.87 734.987C1251.6 733.06 1251.17 734.094 1251.7 732.603C1262.86 728.58 1280.98 715.973 1285.05 705.41C1272.09 705.723 1259.13 701.031 1258.55 700.704C1258.44 700.707 1257.98 700.49 1257.86 700.266C1280.08 688.477 1274.18 695.532 1282.14 688.306C1281.15 685.145 1282.24 688.076 1280.03 685.741C1278.05 683.741 1279.01 685.993 1277.7 683.409C1287.1 677.154 1300.26 666.145 1304.68 656.256C1298.19 655.958 1290.9 655.679 1285.72 652.847C1287 649.631 1299.94 643.518 1303.65 641.723L1302.93 640.375C1302.77 633.663 1307.15 635.631 1314.45 627.472C1316.44 625.149 1326.14 612.29 1327.1 609.764C1315.63 609.346 1316.84 609.113 1307.09 605.243L1329.61 591.392C1325.01 584.338 1322.46 591.792 1337.45 576.531C1341.77 572.104 1347.2 566.173 1348.95 558.169L1332.9 557.874C1333.83 554.098 1337.44 552.76 1340 550.537C1344.46 546.79 1343.43 546.36 1346.75 542.64C1344.34 541.561 1347.68 543.3 1344.35 542.016C1344.23 541.905 1343.77 541.689 1343.54 541.694C1341.53 540.681 1341.77 540.832 1340.89 540.279C1355.91 535.822 1359.38 519.246 1366.74 508.377C1361.16 508.398 1355.59 508.191 1351.55 505.9C1353.03 501.315 1362.14 497 1364.63 491.594C1366.03 488.603 1365.18 491.126 1364.46 489.551C1359.68 479.885 1364.96 495.795 1362.58 486.867C1369.42 483.062 1372.63 474.341 1376.29 465.835C1374.05 465.149 1376.77 466.611 1370.21 463.821C1379.49 452.451 1384.54 440.158 1391.39 426.913C1404.42 401.576 1450.29 331.997 1452.52 311.584C1447.47 314.208 1428.29 339.467 1423.89 345.601C1423.18 346.603 1381.82 396.205 1364.45 413.574C1359.56 418.583 1353.42 423.281 1347.75 428.536C1344.08 431.923 1336.55 445.185 1333.52 446.85L1328.32 438.673C1321.45 441.796 1303.49 465.66 1300.14 472.906C1293.39 471.135 1300.71 472.892 1295.4 469.949C1287.65 481.924 1291.18 487.654 1285.37 492.371C1280.84 488.679 1282.15 484.101 1276.87 474.833C1270.49 483.972 1261.8 491.575 1255.58 502.303C1253.62 505.763 1253.02 509.53 1250.49 513.004L1244.21 507.127C1230.37 525.748 1238.92 516.656 1232.12 538.811L1225.73 514.397C1209.67 527.751 1214.02 533.56 1206.98 543.285C1201.59 541.368 1206.97 543.058 1202.11 539.649C1200.13 546.976 1198.76 560.886 1192.41 566.498C1187.75 561.833 1185.93 552.551 1184.95 544.726C1173.81 554.663 1169.39 559.774 1165.21 575.343C1162.02 575.079 1163.25 574.139 1160.26 572.846C1156.68 580.098 1157.41 591.454 1152.61 595.21C1147.59 591.226 1144.34 578.926 1139.49 574.485C1129.7 583.82 1128.83 594.647 1121.02 605.754C1114.53 605.569 1120.91 605.87 1114.93 603.399C1113.32 607.305 1110.39 612.949 1109.14 617.984C1107.69 623.592 1109.04 632.432 1106.87 636.692C1099.19 634.375 1101.19 618.403 1093.62 610.852C1089.85 615.038 1085.2 625.159 1081.8 630.246C1075.11 640.53 1075.43 639.613 1072.92 653.549L1066.9 649.145C1067.52 664.887 1066.11 666.423 1062.36 673.026C1058.51 669.024 1052.72 655.174 1049.17 649.8C1042.3 662.022 1032.61 675.223 1031.34 692.997C1028.25 692.162 1028.62 693.518 1026.68 688.673C1021.17 705.185 1025.33 717.368 1021.85 724.049C1016.29 721.214 1017.34 708.201 1008.49 693.662C1004.71 697.052 994.791 719.812 992.968 724.405C988.352 735.777 987.264 751.954 983.604 760.573C976.712 757.782 976.552 746.412 972.619 739C968.683 745.578 972.155 752.774 958.862 772.203C955.678 776.943 953.187 782.122 951.405 788.42C949.099 796.551 949.299 804.849 946.77 808.436C941.561 804.695 942.113 794.558 933.692 784.98C933.537 806.822 928.147 805.018 923.616 819.914C920.324 830.859 916.539 856.719 916.437 857.053C912.257 853.514 910.684 844.908 907.07 841.242C877.7 909.966 901.927 856.09 882.284 907.582C878.242 905.064 878.05 897.106 877.467 891.775C875.41 900.81 870.636 910.366 868.635 921.674C867.533 927.843 862.909 948.314 860.637 953.146C856.931 950.392 854.85 944.3 850.662 940.42C846.013 963.32 850.439 954.926 841.321 986.938C839.653 993.234 841.36 997.97 840.258 1004.14C835.118 1003.24 834.251 1000.3 830.634 996.522C825.738 1029.28 816.856 1033.59 814.312 1050.71C804.317 1056.65 813.919 1047.08 798.166 1079.2C780.078 1115.66 748.246 1162.7 741.081 1164.52C742.921 1113.52 748.148 1122.72 753.058 1090.52C754.619 1079.8 757.511 1077.11 761.755 1069.16C777.546 1038.78 762.321 1054.91 797.99 1001.18C801.193 997.233 803.012 997.189 804.835 992.595C795.165 992.487 797.576 993.453 790.922 995.774C792.324 987.892 823.837 941.067 830.745 925.659L813.62 932.442C821.823 914.159 848.334 881.559 849.842 859.229C844.609 862.197 839.241 870.887 827.068 872.29L846.289 843.96C844.463 839 847.118 845.305 841.76 840.088C849.956 826.241 852.29 819.247 850.57 799.839C848.335 801.485 845.748 802.685 841.905 803.688C846.883 788.44 857.126 783.985 858.027 750.637C854.574 753.678 848.798 759.39 843.372 760.772C844.721 755.394 847.059 753.29 848.937 746.306C856.108 716.549 865.426 726.379 863.826 698.744C855.625 701.807 853.236 708.132 838.573 712.775C839.123 707.302 842.351 704.381 845.192 699.535C847.156 696.075 850.61 688.371 851.494 687.326C846.743 683.687 849.24 688.177 846.621 683.349C851.099 680.397 852.626 672.967 854.868 666.885C857.01 661.374 860.028 654.477 860.659 647.637L840.961 656.188C841.857 647.957 861.099 628.176 860.427 600.327C852.438 603.932 850.86 609.202 839.774 611.744C840.338 606.84 843.308 602.673 845.459 597.503C848.144 590.955 847.824 587.096 849.714 580.567C853.818 566.819 858.681 565.678 858.248 547.718C849.306 549.526 848.323 555.919 838.466 557.522C839.546 550.444 850.242 541.2 852.867 532.152L842.271 531.384C844.089 523.287 852.133 515.729 852.266 488.376C847.633 491.401 841.241 500.945 829.508 502.119C830.28 496.413 833.638 494.171 836.47 488.985C839.308 484.026 840.14 480.821 842.279 475.196L836.917 474.529C840.061 463.42 849.327 442.041 847.228 430.49C846.384 433.24 827.889 444.492 822.105 445.2C826.265 435.821 840.089 421.2 833.35 411.603C828.317 405.696 834.001 414.999 831.371 409.717C835.962 401.986 837.448 388.187 835.022 377.213C833.588 379.067 815.686 391.329 812.985 392.531C814.121 383.063 824.225 368.147 828.564 359.398L820.363 358.914C822.357 347.264 826.37 329.765 820.093 319.453C817.475 324.066 810.175 332.659 802.8 333.405C805.38 327.201 811.115 319.783 809.007 312.555C808.256 309.73 806.315 314.099 808.621 305.967C811.038 297.719 810.724 279.984 810.945 270.31L796.525 280.781C786.784 287.158 792.817 273.25 794.096 269.693C800.361 251.23 798.972 240.799 794.343 223.395C788.454 226.257 784.222 235.274 775.104 236.826C776.85 229.05 782.209 220.162 780.633 211.442C778.803 201.591 777.408 214.477 777.209 201.516C777.158 194.693 775.65 184.038 772.427 177.746L760.772 184.965C757.878 159.33 762.478 170.82 754.665 139.275C747.711 143.31 748.529 139.537 747.306 131.263C742.421 98.51 733.704 76.655 731.248 40.886C730.378 28.396 732.012 11.295 727.77 0.478027C723.571 5.58403 720.707 28.287 719.61 34.683C716.908 49.989 718.85 59.724 718.771 75.308C718.453 104.215 712.711 125.509 715.013 154.912Z"/>
</svg>
