<svg width="150" height="100" viewBox="0 0 150 100" fill="none" xmlns="http://www.w3.org/2000/svg">
<g clip-path="url(#clip0_125_3754)">
<g opacity="0.1">
<path d="M80.273 58.1667L69.7863 54.7058L69.8404 43.663C69.842 43.5143 69.8905 43.37 69.9791 43.2506C70.0677 43.1312 70.1918 43.0429 70.3336 42.9983L73.505 41.9776L79.8138 39.9608C79.8671 39.9469 79.9229 39.9457 79.9767 39.9573C80.0648 39.9758 80.1428 40.0266 80.1953 40.0997C80.2479 40.1727 80.2712 40.2628 80.2607 40.3522C80.2521 40.4115 80.2285 40.4677 80.1921 40.5153L76.287 45.8453L80.2543 51.3608L86.5632 49.3439C86.6164 49.33 86.6722 49.3289 86.726 49.3404C86.8141 49.3589 86.8921 49.4097 86.9446 49.4828C86.9972 49.5559 87.0205 49.646 87.0101 49.7354C87.0014 49.7947 86.9778 49.8508 86.9414 49.8984L83.0227 55.2382L81.0845 57.9446C80.9911 58.064 80.8617 58.1501 80.7155 58.1901C80.5693 58.2301 80.4141 58.2219 80.273 58.1667Z" stroke="white" stroke-width="2" stroke-linecap="round" stroke-linejoin="round"/>
<path d="M61.2698 17.8761C59.0744 18.9441 56.7211 19.6511 54.3006 19.9699C53.2943 18.3442 51.813 17.0667 50.057 16.3103C48.301 15.5539 46.355 15.3551 44.4824 15.7407C42.6097 16.1262 40.9006 17.0777 39.5862 18.4662C38.2719 19.8548 37.4157 21.6136 37.1335 23.5046L36.7984 25.5608C33.1696 25.0656 29.7196 23.6806 26.7557 21.5293C23.7918 19.3779 21.4059 16.5269 19.8106 13.2302C19.8106 13.2302 8.56981 30.3957 25.7353 41.6364C21.0321 43.8208 15.7526 44.44 10.6716 43.4031C27.5019 56.7001 51.7957 50.1052 55.6494 26.4588C55.7409 25.8858 55.7789 25.3055 55.7631 24.7254C58.1989 22.9978 60.1057 20.6261 61.2698 17.8761Z" stroke="white" stroke-width="2" stroke-linecap="round" stroke-linejoin="round"/>
<path d="M39.3787 89.2739C33.194 93.7127 31.298 88.1961 28.3027 88.4546M50.4548 90.0932L48.6204 84.7559C48.4461 84.0805 48.13 83.45 47.6931 82.9062C47.2563 82.3623 46.7087 81.9178 46.0868 81.6019C50.2514 79.6308 54.2385 76.4254 51.6503 68.8953C50.9882 66.9698 49.6111 65.3727 47.8041 64.4345C47.8537 62.5338 47.1693 60.687 45.8929 59.2778C45.8929 59.2778 44.0996 59.3544 41.202 63.1723C37.7465 63.4021 34.4145 64.5473 31.548 66.4904C26.9154 65.2607 25.4539 66.3027 25.4539 66.3027C25.3136 68.1989 25.9092 70.0762 27.1169 71.5447C26.2622 73.4094 26.1629 75.5327 26.8399 77.4689C29.4091 84.9439 34.5244 85.0208 39.0398 84.0703C38.7472 84.6951 38.5894 85.3745 38.5768 86.0644C38.5641 86.7542 38.6968 87.4389 38.9663 88.0741L40.8008 93.4114" stroke="white" stroke-width="2" stroke-linecap="round" stroke-linejoin="round"/>
<path d="M123.837 37.6498C119.668 42.0894 117.328 38.0521 115.016 38.7178M132.658 36.5818L130.393 32.6757C130.152 32.1725 129.807 31.7263 129.38 31.367C128.953 31.0076 128.454 30.7432 127.917 30.5914C130.882 28.4008 133.516 25.2688 130.321 19.7579C129.504 18.3489 128.176 17.308 126.613 16.8506C126.358 15.351 125.536 14.0071 124.316 13.0982C124.316 13.0982 122.92 13.4354 121.236 16.8798C118.559 17.594 116.12 19.0077 114.171 20.9758C110.344 20.7262 109.358 21.7699 109.358 21.7699C109.541 23.2799 110.298 24.6615 111.473 25.6277C111.09 27.2234 111.341 28.9053 112.171 30.3206C115.342 35.7911 119.37 35.0613 122.767 33.6176C122.634 34.1532 122.615 34.7109 122.712 35.2543C122.808 35.7978 123.018 36.3147 123.328 36.7717L125.592 40.6777" stroke="white" stroke-width="2" stroke-linecap="round" stroke-linejoin="round"/>
<path d="M141.835 60.5052C140.058 61.4271 138.144 62.0564 136.167 62.369C135.307 61.0576 134.066 60.0418 132.611 59.4589C131.155 58.876 129.556 58.7542 128.029 59.1099C126.502 59.4656 125.121 60.2817 124.073 61.4477C123.025 62.6138 122.36 64.0736 122.169 65.6297L121.938 67.3223C118.953 66.9932 116.095 65.9309 113.62 64.2301C111.145 62.5293 109.129 60.2427 107.752 57.5741C107.752 57.5741 98.9005 71.8829 113.209 80.7341C109.4 82.6242 105.086 83.2435 100.899 82.501C114.976 93.0448 134.751 87.1247 137.41 67.6596C137.472 67.1879 137.491 66.7114 137.466 66.2362C139.426 64.7685 140.939 62.7841 141.835 60.5052Z" stroke="white" stroke-width="2" stroke-linecap="round" stroke-linejoin="round"/>
</g>
</g>
<defs>
<clipPath id="clip0_125_3754">
<rect width="150" height="100" fill="white"/>
</clipPath>
</defs>
</svg>
