<svg width="150" height="100" viewBox="0 0 150 100" fill="none"
    xmlns="http://www.w3.org/2000/svg">
    <g clip-path="url(#clip0_126_3808)">
        <g opacity="0.1">
            <path d="M87.9016 50.9747L85.5601 50.5924M76.6499 49.1377C76.4597 50.303 75.8249 51.3956 74.7908 52.1395C72.7224 53.6273 69.8396 53.1566 68.3518 51.0882C66.8641 49.0199 67.3347 46.1371 69.4031 44.6493C71.4714 43.1615 74.3542 43.6322 75.842 45.7006C76.5859 46.7347 76.8402 47.9725 76.6499 49.1377ZM76.6499 49.1377L81.4626 49.9235M81.4626 49.9235L80.8892 53.4356L84.9867 54.1046L85.5601 50.5924M81.4626 49.9235L85.5601 50.5924" stroke="white" stroke-width="2" stroke-linecap="round" stroke-linejoin="round"/>
            <path d="M57.4926 15.1495L52.71 18.5917M34.51 31.6909C36.223 34.071 37.028 37.1045 36.5191 40.2275C35.5012 46.4733 29.6127 50.7114 23.3669 49.6935C17.121 48.6756 12.8829 42.7872 13.9008 36.5413C14.9187 30.2955 20.8072 26.0574 27.053 27.0753C30.176 27.5842 32.7969 29.3108 34.51 31.6909ZM34.51 31.6909L44.3404 24.6156M44.3404 24.6156L49.5037 31.7895L57.8733 25.7656L52.71 18.5917M44.3404 24.6156L52.71 18.5917" stroke="white" stroke-width="2" stroke-linecap="round" stroke-linejoin="round"/>
            <path d="M47.8701 60.1403L46.0599 63.8466M39.171 77.9509C41.0155 78.8517 42.5163 80.4563 43.2362 82.5509C44.6761 86.7401 42.4472 91.3034 38.258 92.7433C34.0687 94.1831 29.5055 91.9543 28.0656 87.7651C26.6257 83.5758 28.8546 79.0125 33.0438 77.5727C35.1384 76.8528 37.3266 77.05 39.171 77.9509ZM39.171 77.9509L42.8919 70.3327M42.8919 70.3327L48.4514 73.0481L51.6194 66.562L46.0599 63.8466M42.8919 70.3327L46.0599 63.8466" stroke="white" stroke-width="2" stroke-linecap="round" stroke-linejoin="round"/>
            <path d="M126.001 13.4697L125.153 16.6586M121.925 28.7938C123.512 29.216 124.937 30.2436 125.826 31.7766C127.604 34.8424 126.559 38.7687 123.493 40.5461C120.427 42.3235 116.501 41.2789 114.724 38.2131C112.946 35.1472 113.991 31.2209 117.057 29.4435C118.59 28.5549 120.338 28.3716 121.925 28.7938ZM121.925 28.7938L123.668 22.2392M123.668 22.2392L128.452 23.5117L129.936 17.9311L125.153 16.6586M123.668 22.2392L125.153 16.6586" stroke="white" stroke-width="2" stroke-linecap="round" stroke-linejoin="round"/>
            <path d="M138.681 58.3501L134.833 61.273M120.191 72.3958C121.646 74.3106 122.37 76.7803 122.019 79.351C121.317 84.4924 116.58 88.0911 111.438 87.3889C106.297 86.6866 102.698 81.9494 103.4 76.808C104.102 71.6665 108.84 68.0678 113.981 68.7701C116.552 69.1212 118.737 70.4811 120.191 72.3958ZM120.191 72.3958L128.1 66.388M128.1 66.388L132.484 72.1594L139.218 67.0444L134.833 61.273M128.1 66.388L134.833 61.273" stroke="white" stroke-width="2" stroke-linecap="round" stroke-linejoin="round"/>
        </g>
    </g>
    <defs>
        <clipPath id="clip0_126_3808">
            <rect width="150" height="100" fill="white"/>
        </clipPath>
    </defs>
</svg>
