<svg width="150" height="100" viewBox="0 0 150 100" fill="none" xmlns="http://www.w3.org/2000/svg">
<g clip-path="url(#clip0_125_3820)">
<g opacity="0.1">
<path d="M74.6414 51.2136C75.4529 52.3418 77.0253 52.5985 78.1535 51.787C79.2817 50.9755 79.5384 49.403 78.7269 48.2748C77.9154 47.1466 76.343 46.8899 75.2148 47.7014C74.0866 48.5129 73.8299 50.0854 74.6414 51.2136Z" stroke="white" stroke-width="2" stroke-linecap="round" stroke-linejoin="round"/>
<path d="M78.2658 56.2524C77.9952 56.3095 77.748 56.4463 77.5559 56.6453C77.3638 56.8442 77.2357 57.0961 77.1882 57.3685L77.1767 57.4388C77.1413 57.6564 77.0633 57.8649 76.9473 58.0523C76.8313 58.2398 76.6794 58.4025 76.5005 58.5312C76.3215 58.66 76.1189 58.7522 75.9043 58.8026C75.6897 58.8529 75.4672 58.8605 75.2497 58.8249C75.0321 58.7895 74.8236 58.7115 74.6361 58.5955C74.4487 58.4795 74.2859 58.3276 74.1572 58.1487C74.0285 57.9697 73.9363 57.7671 73.8859 57.5525C73.8355 57.3379 73.8279 57.1154 73.8636 56.8979L73.875 56.8276C73.9166 56.5542 73.8753 56.2747 73.7564 56.025C73.6376 55.7753 73.4467 55.5669 73.2083 55.4267C72.9771 55.2874 72.7103 55.2187 72.4406 55.2292C72.1709 55.2396 71.9101 55.3286 71.6903 55.4854L71.5746 55.5686C71.2134 55.8284 70.7638 55.9341 70.3247 55.8624C69.8856 55.7907 69.4929 55.5476 69.2331 55.1864C68.9733 54.8252 68.8677 54.3756 68.9394 53.9365C69.011 53.4974 69.2542 53.1047 69.6154 52.8449L69.6767 52.8009C69.8983 52.6335 70.0644 52.4033 70.1534 52.1402C70.2425 51.8772 70.2503 51.5934 70.1759 51.3259C70.1188 51.0553 69.982 50.808 69.7831 50.6159C69.5841 50.4239 69.3322 50.2958 69.0598 50.2482L68.9896 50.2368C68.772 50.2014 68.5635 50.1234 68.376 50.0074C68.1886 49.8913 68.0258 49.7395 67.8971 49.5605C67.7684 49.3816 67.6762 49.179 67.6258 48.9644C67.5754 48.7497 67.5678 48.5273 67.6034 48.3097C67.6389 48.0921 67.7168 47.8837 67.8328 47.6962C67.9489 47.5087 68.1007 47.346 68.2797 47.2173C68.4586 47.0885 68.6612 46.9963 68.8758 46.946C69.0905 46.8956 69.3129 46.888 69.5305 46.9236L69.6007 46.9351C69.8741 46.9766 70.1537 46.9353 70.4034 46.8165C70.6531 46.6977 70.8614 46.5068 71.0016 46.2684C71.1409 46.0372 71.2096 45.7703 71.1992 45.5006C71.1888 45.2309 71.0997 44.9701 70.943 44.7504L70.8597 44.6346C70.5999 44.2735 70.4942 43.8239 70.5659 43.3848C70.6376 42.9456 70.8808 42.553 71.242 42.2932C71.6032 42.0334 72.0528 41.9277 72.4919 41.9994C72.931 42.0711 73.3236 42.3143 73.5834 42.6755L73.6275 42.7368C73.7949 42.9584 74.0251 43.1245 74.2881 43.2135C74.5512 43.3025 74.8349 43.3104 75.1025 43.236C75.373 43.1789 75.6203 43.0421 75.8124 42.8431C76.0045 42.6442 76.1326 42.3923 76.1801 42.1199L76.1916 42.0496C76.227 41.832 76.3049 41.6235 76.421 41.4361C76.537 41.2486 76.6888 41.0859 76.8678 40.9572C77.0468 40.8284 77.2494 40.7362 77.464 40.6858C77.6786 40.6355 77.901 40.6279 78.1186 40.6635C78.3362 40.6989 78.5447 40.7769 78.7321 40.8929C78.9196 41.0089 79.0823 41.1608 79.2111 41.3397C79.3398 41.5187 79.432 41.7213 79.4824 41.9359C79.5328 42.1505 79.5404 42.373 79.5047 42.5905L79.4932 42.6608C79.4517 42.9342 79.493 43.2137 79.6118 43.4634C79.7307 43.7131 79.9216 43.9215 80.16 44.0617L80.1991 44.1162C80.4303 44.2555 80.6972 44.3241 80.9669 44.3137C81.2366 44.3033 81.4974 44.2142 81.7171 44.0575L81.8329 43.9742C82.1941 43.7144 82.6437 43.6088 83.0828 43.6804C83.5219 43.7521 83.9145 43.9953 84.1743 44.3565C84.4341 44.7177 84.5398 45.1673 84.4681 45.6064C84.3964 46.0455 84.1532 46.4381 83.792 46.6979L83.7308 46.742C83.5123 46.9005 83.3449 47.1194 83.2492 47.3718C83.1536 47.6242 83.1338 47.899 83.1924 48.1625C83.2494 48.4331 83.3863 48.6804 83.5852 48.8725C83.7841 49.0645 84.0361 49.1926 84.3085 49.2402L84.3787 49.2516C84.5963 49.287 84.8048 49.365 84.9923 49.481C85.1797 49.5971 85.3425 49.7489 85.4712 49.9279C85.5999 50.1068 85.6921 50.3094 85.7425 50.524C85.7929 50.7387 85.8005 50.9611 85.7648 51.1787C85.7294 51.3963 85.6515 51.6047 85.5355 51.7922C85.4194 51.9797 85.2676 52.1424 85.0886 52.2711C84.9096 52.3999 84.7071 52.4921 84.4924 52.5424C84.2778 52.5928 84.0554 52.6004 83.8378 52.5648L83.7676 52.5533C83.4942 52.5118 83.2146 52.5531 82.9649 52.6719C82.7152 52.7907 82.5068 52.9816 82.3667 53.22L82.3122 53.2592C82.1729 53.4904 82.1042 53.7573 82.1146 54.027C82.125 54.2967 82.2141 54.5574 82.3708 54.7772L82.4541 54.8929C82.7139 55.2541 82.8196 55.7037 82.7479 56.1428C82.6762 56.5819 82.433 56.9746 82.0718 57.2344C81.7106 57.4942 81.261 57.5999 80.8219 57.5282C80.3828 57.4565 79.9902 57.2133 79.7304 56.8521L79.6863 56.7908C79.5278 56.5723 79.3089 56.405 79.0565 56.3093C78.8041 56.2136 78.5293 56.1939 78.2658 56.2524V56.2524Z" stroke="white" stroke-width="2" stroke-linecap="round" stroke-linejoin="round"/>
<path d="M34.6304 38.8643C38.0372 39.4195 41.2491 37.1078 41.8043 33.701C42.3596 30.2941 40.0479 27.0823 36.641 26.527C33.2342 25.9718 30.0223 28.2835 29.4671 31.6903C28.9119 35.0972 31.2236 38.3091 34.6304 38.8643Z" stroke="white" stroke-width="2" stroke-linecap="round" stroke-linejoin="round"/>
<path d="M49.8464 41.3441C49.4716 41.9197 49.2778 42.5944 49.2901 43.2811C49.3023 43.9678 49.52 44.6352 49.915 45.197L50.0183 45.3405C50.3384 45.7847 50.5678 46.2877 50.6934 46.8207C50.819 47.3537 50.8383 47.9062 50.7502 48.4466C50.6622 48.987 50.4684 49.5048 50.1801 49.9703C49.8918 50.4358 49.5146 50.8399 49.07 51.1596C48.6257 51.4797 48.1227 51.7091 47.5898 51.8347C47.0568 51.9603 46.5043 51.9796 45.9639 51.8915C45.4234 51.8034 44.9056 51.6097 44.4401 51.3214C43.9746 51.0331 43.5705 50.6558 43.2509 50.2112L43.1476 50.0677C42.7403 49.5147 42.1766 49.0964 41.5293 48.8668C40.882 48.6371 40.1807 48.6067 39.5159 48.7793C38.8653 48.9408 38.2761 49.2891 37.8208 49.7812C37.3656 50.2734 37.0642 50.8878 36.9537 51.5491L36.8967 51.8986C36.719 52.9893 36.1152 53.9647 35.2183 54.6102C34.3214 55.2558 33.2048 55.5186 32.1141 55.3408C31.0234 55.1631 30.048 54.5593 29.4025 53.6624C28.757 52.7655 28.4942 51.6489 28.6719 50.5582L28.7021 50.3732C28.7971 49.69 28.6843 48.994 28.3785 48.3757C28.0727 47.7575 27.588 47.2455 26.9874 46.9064C26.4118 46.5316 25.7371 46.3378 25.0504 46.3501C24.3637 46.3623 23.6963 46.58 23.1345 46.975L22.991 47.0783C22.5468 47.3984 22.0438 47.6278 21.5108 47.7534C20.9778 47.879 20.4253 47.8983 19.8849 47.8103C19.3445 47.7222 18.8267 47.5284 18.3612 47.2401C17.8957 46.9518 17.4916 46.5746 17.1719 46.13C16.8518 45.6857 16.6224 45.1827 16.4968 44.6498C16.3712 44.1168 16.3519 43.5643 16.44 43.0239C16.5281 42.4834 16.7218 41.9657 17.0101 41.5001C17.2984 41.0346 17.6757 40.6305 18.1203 40.3109L18.2638 40.2076C18.8168 39.8003 19.2351 39.2366 19.4647 38.5893C19.6944 37.942 19.7248 37.2407 19.5522 36.5759C19.3907 35.9253 19.0424 35.3361 18.5503 34.8808C18.0582 34.4256 17.4437 34.1242 16.7824 34.0137L16.4329 33.9567C15.3422 33.779 14.3668 33.1753 13.7213 32.2783C13.0757 31.3814 12.8129 30.2648 12.9907 29.1741C13.1684 28.0834 13.7722 27.108 14.6691 26.4625C15.566 25.817 16.6826 25.5542 17.7733 25.7319L17.9583 25.7621C18.6415 25.8571 19.3375 25.7443 19.9558 25.4385C20.574 25.1327 21.086 24.648 21.4251 24.0474C21.7999 23.4718 21.9937 22.7971 21.9814 22.1104C21.9692 21.4237 21.7515 20.7564 21.3565 20.1945L21.2532 20.051C20.9331 19.6068 20.7037 19.1038 20.5781 18.5708C20.4525 18.0379 20.4332 17.4854 20.5213 16.9449C20.6093 16.4045 20.8031 15.8867 21.0914 15.4212C21.3797 14.9557 21.7569 14.5516 22.2015 14.232C22.6458 13.9118 23.1488 13.6824 23.6817 13.5568C24.2147 13.4312 24.7672 13.4119 25.3076 13.5C25.8481 13.5881 26.3659 13.7818 26.8314 14.0701C27.2969 14.3585 27.701 14.7357 28.0206 15.1803L28.1239 15.3238C28.5312 15.8768 29.0949 16.2951 29.7422 16.5247C30.3895 16.7544 31.0908 16.7849 31.7556 16.6122L31.9201 16.639C32.5707 16.4775 33.1599 16.1292 33.6152 15.6371C34.0704 15.145 34.3718 14.5305 34.4823 13.8693L34.5393 13.5197C34.717 12.429 35.3208 11.4536 36.2177 10.8081C37.1146 10.1625 38.2312 9.89974 39.3219 10.0775C40.4126 10.2552 41.388 10.859 42.0335 11.7559C42.679 12.6528 42.9418 13.7694 42.7641 14.8601L42.7339 15.0452C42.6287 15.7073 42.7194 16.3857 42.9949 16.9969C43.2703 17.6081 43.7184 18.1254 44.2841 18.4851C44.8597 18.8599 45.5344 19.0537 46.2211 19.0415C46.9078 19.0292 47.5752 18.8115 48.137 18.4165L48.2805 18.3132C48.7247 17.9931 49.2277 17.7637 49.7607 17.6381C50.2937 17.5125 50.8461 17.4932 51.3866 17.5813C51.927 17.6693 52.4448 17.8631 52.9103 18.1514C53.3758 18.4397 53.7799 18.817 54.0996 19.2616C54.4197 19.7058 54.6491 20.2088 54.7747 20.7418C54.9003 21.2747 54.9196 21.8272 54.8315 22.3677C54.7434 22.9081 54.5497 23.4259 54.2614 23.8914C53.9731 24.3569 53.5958 24.761 53.1512 25.0806L53.0077 25.1839C52.4547 25.5912 52.0364 26.1549 51.8068 26.8022C51.5771 27.4495 51.5467 28.1508 51.7193 28.8156L51.6925 28.9801C51.854 29.6307 52.2023 30.2199 52.6944 30.6752C53.1865 31.1304 53.801 31.4318 54.4623 31.5423L54.8118 31.5993C55.9025 31.777 56.8779 32.3808 57.5234 33.2777C58.169 34.1746 58.4318 35.2912 58.254 36.3819C58.0763 37.4726 57.4725 38.448 56.5756 39.0935C55.6787 39.739 54.5621 40.0019 53.4714 39.8241L53.2863 39.7939C52.6243 39.6887 51.9459 39.7795 51.3347 40.0549C50.7235 40.3303 50.2061 40.7785 49.8464 41.3441V41.3441Z" stroke="white" stroke-width="2" stroke-linecap="round" stroke-linejoin="round"/>
<path d="M41.62 82.3352C43.905 81.5499 45.1207 79.0608 44.3354 76.7758C43.55 74.4907 41.0609 73.275 38.7759 74.0604C36.4908 74.8457 35.2751 77.3348 36.0605 79.6199C36.8459 81.9049 39.3349 83.1206 41.62 82.3352Z" stroke="white" stroke-width="2" stroke-linecap="round" stroke-linejoin="round"/>
<path d="M51.8258 78.8276C51.7852 79.3066 51.889 79.7869 52.1239 80.2064C52.3588 80.6259 52.7139 80.9654 53.1436 81.1812L53.2548 81.2355C53.5993 81.4035 53.9073 81.6378 54.1612 81.925C54.4151 82.2121 54.6099 82.5465 54.7345 82.9089C54.8591 83.2714 54.911 83.6549 54.8873 84.0375C54.8636 84.42 54.7647 84.7942 54.5963 85.1385C54.4282 85.483 54.1939 85.791 53.9068 86.0449C53.6197 86.2988 53.2853 86.4936 52.9228 86.6182C52.5603 86.7428 52.1768 86.7947 51.7943 86.771C51.4117 86.7473 51.0376 86.6484 50.6933 86.48L50.5821 86.4256C50.1478 86.2194 49.6616 86.148 49.1864 86.2207C48.7111 86.2933 48.2685 86.5067 47.9156 86.8332C47.5678 87.1483 47.3197 87.5581 47.2018 88.0124C47.0839 88.4666 47.1015 88.9454 47.2522 89.3898L47.3328 89.6242C47.5843 90.3558 47.5348 91.1572 47.1953 91.8523C46.8558 92.5474 46.2541 93.0791 45.5226 93.3306C44.791 93.582 43.9896 93.5325 43.2945 93.193C42.5994 92.8535 42.0677 92.2518 41.8162 91.5203L41.7736 91.3962C41.606 90.9434 41.3061 90.5514 40.9128 90.2713C40.5195 89.9912 40.051 89.8359 39.5683 89.8256C39.0893 89.785 38.609 89.8888 38.1895 90.1237C37.77 90.3586 37.4305 90.7138 37.2147 91.1434L37.1604 91.2546C36.9924 91.5991 36.7581 91.9071 36.4709 92.161C36.1838 92.4149 35.8494 92.6097 35.487 92.7343C35.1245 92.8589 34.741 92.9108 34.3584 92.8871C33.9759 92.8634 33.6017 92.7645 33.2574 92.5961C32.9129 92.4281 32.6049 92.1938 32.351 91.9066C32.0971 91.6195 31.9023 91.2851 31.7777 90.9226C31.6531 90.5602 31.6012 90.1767 31.6249 89.7941C31.6486 89.4116 31.7475 89.0374 31.9159 88.6931L31.9703 88.5819C32.1765 88.1476 32.2479 87.6615 32.1752 87.1862C32.1026 86.7109 31.8892 86.2683 31.5627 85.9154C31.2476 85.5676 30.8378 85.3195 30.3835 85.2016C29.9293 85.0838 29.4505 85.1013 29.0061 85.2521L28.7717 85.3326C28.0401 85.5841 27.2387 85.5346 26.5436 85.1951C25.8485 84.8556 25.3168 84.2539 25.0653 83.5224C24.8139 82.7908 24.8634 81.9894 25.2029 81.2943C25.5424 80.5992 26.1441 80.0675 26.8756 79.8161L26.9997 79.7734C27.4525 79.6058 27.8445 79.3059 28.1246 78.9126C28.4047 78.5193 28.56 78.0509 28.5703 77.5682C28.6109 77.0891 28.5071 76.6088 28.2722 76.1893C28.0373 75.7698 27.6821 75.4303 27.2525 75.2145L27.1413 75.1602C26.7968 74.9922 26.4888 74.7579 26.2349 74.4708C25.981 74.1836 25.7862 73.8493 25.6616 73.4868C25.537 73.1243 25.4851 72.7408 25.5088 72.3583C25.5325 71.9757 25.6314 71.6016 25.7998 71.2572C25.9678 70.9127 26.2021 70.6047 26.4893 70.3508C26.7764 70.0969 27.1108 69.9021 27.4733 69.7775C27.8357 69.653 28.2192 69.601 28.6018 69.6248C28.9843 69.6485 29.3585 69.7474 29.7028 69.9158L29.814 69.9701C30.2483 70.1763 30.7344 70.2477 31.2097 70.1751C31.685 70.1024 32.1276 69.889 32.4805 69.5625L32.5908 69.5246C32.9386 69.2095 33.1867 68.7997 33.3046 68.3455C33.4225 67.8912 33.4049 67.4124 33.2542 66.968L33.1736 66.7336C32.9221 66.002 32.9716 65.2006 33.3111 64.5055C33.6506 63.8104 34.2523 63.2787 34.9838 63.0273C35.7154 62.7758 36.5168 62.8253 37.2119 63.1648C37.907 63.5043 38.4387 64.106 38.6902 64.8375L38.7328 64.9616C38.8871 65.4048 39.1677 65.7932 39.5399 66.079C39.9121 66.3648 40.3597 66.5355 40.8277 66.5701C41.3068 66.6107 41.7871 66.5069 42.2066 66.272C42.6261 66.0371 42.9656 65.682 43.1814 65.2523L43.2357 65.1411C43.4037 64.7966 43.638 64.4886 43.9251 64.2347C44.2123 63.9808 44.5466 63.786 44.9091 63.6614C45.2716 63.5368 45.6551 63.4849 46.0376 63.5086C46.4202 63.5323 46.7943 63.6312 47.1386 63.7996C47.4832 63.9677 47.7912 64.202 48.0451 64.4891C48.299 64.7762 48.4938 65.1106 48.6184 65.4731C48.7429 65.8356 48.7949 66.2191 48.7711 66.6016C48.7474 66.9842 48.6485 67.3583 48.4801 67.7026L48.4258 67.8138C48.2196 68.2481 48.1482 68.7343 48.2208 69.2095C48.2935 69.6848 48.5068 70.1274 48.8334 70.4803L48.8713 70.5906C49.1864 70.9384 49.5962 71.1866 50.0504 71.3044C50.5047 71.4223 50.9835 71.4048 51.4279 71.254L51.6623 71.1734C52.3939 70.922 53.1953 70.9714 53.8904 71.3109C54.5855 71.6504 55.1172 72.2521 55.3686 72.9837C55.6201 73.7152 55.5706 74.5167 55.2311 75.2118C54.8916 75.9068 54.2899 76.4386 53.5584 76.69L53.4343 76.7327C52.9911 76.887 52.6027 77.1675 52.3169 77.5397C52.0311 77.9119 51.8604 78.3596 51.8258 78.8276V78.8276Z" stroke="white" stroke-width="2" stroke-linecap="round" stroke-linejoin="round"/>
<path d="M124.524 31.857C126.197 30.8876 126.766 28.746 125.797 27.0737C124.827 25.4014 122.686 24.8316 121.014 25.8011C119.341 26.7706 118.772 28.9122 119.741 30.5845C120.71 32.2568 122.852 32.8265 124.524 31.857Z" stroke="white" stroke-width="2" stroke-linecap="round" stroke-linejoin="round"/>
<path d="M131.993 27.5271C132.036 27.9094 132.191 28.2703 132.44 28.5633C132.69 28.8563 133.021 29.068 133.391 29.1709L133.487 29.1964C133.783 29.2751 134.061 29.4114 134.305 29.5975C134.549 29.7837 134.753 30.0161 134.907 30.2814C135.061 30.5466 135.161 30.8396 135.201 31.1436C135.242 31.4475 135.222 31.7565 135.143 32.0528C135.064 32.3491 134.928 32.6271 134.742 32.8708C134.556 33.1144 134.323 33.319 134.058 33.4728C133.793 33.6266 133.5 33.7266 133.196 33.7671C132.892 33.8075 132.583 33.7877 132.287 33.7087L132.191 33.6833C131.818 33.5885 131.426 33.6075 131.064 33.738C130.702 33.8684 130.387 34.1043 130.161 34.4151C129.937 34.7161 129.805 35.0762 129.783 35.4509C129.76 35.8257 129.848 36.1988 130.035 36.5243L130.135 36.6959C130.445 37.2313 130.53 37.868 130.371 38.4661C130.212 39.0641 129.822 39.5745 129.286 39.8848C128.751 40.1952 128.114 40.2802 127.516 40.1211C126.918 39.962 126.408 39.5718 126.097 39.0365L126.045 38.9456C125.843 38.6161 125.547 38.3548 125.195 38.1957C124.843 38.0366 124.452 37.987 124.071 38.0535C123.689 38.0956 123.328 38.2513 123.035 38.5005C122.742 38.7497 122.53 39.0809 122.427 39.4515L122.402 39.5472C122.323 39.8436 122.187 40.1215 122.001 40.3652C121.814 40.6088 121.582 40.8134 121.317 40.9672C121.051 41.121 120.758 41.221 120.455 41.2615C120.151 41.3019 119.842 41.2821 119.545 41.2031C119.249 41.1245 118.971 40.9881 118.727 40.802C118.484 40.6158 118.279 40.3834 118.125 40.1182C117.972 39.8529 117.872 39.5599 117.831 39.2559C117.791 38.952 117.81 38.643 117.889 38.3467L117.915 38.2511C118.01 37.8783 117.991 37.4857 117.86 37.1239C117.73 36.762 117.494 36.4476 117.183 36.221C116.882 35.9967 116.522 35.8652 116.147 35.8429C115.772 35.8205 115.399 35.9083 115.074 36.0953L114.902 36.1947C114.367 36.5051 113.73 36.5901 113.132 36.431C112.534 36.2719 112.024 35.8817 111.713 35.3464C111.403 34.811 111.318 34.1742 111.477 33.5762C111.636 32.9782 112.026 32.4678 112.562 32.1574L112.652 32.1048C112.982 31.9033 113.243 31.6073 113.402 31.2553C113.562 30.9034 113.611 30.5117 113.545 30.1312C113.502 29.7488 113.347 29.3879 113.098 29.0949C112.848 28.8019 112.517 28.5903 112.147 28.4873L112.051 28.4618C111.755 28.3832 111.477 28.2469 111.233 28.0607C110.989 27.8745 110.785 27.6422 110.631 27.3769C110.477 27.1116 110.377 26.8186 110.337 26.5147C110.296 26.2107 110.316 25.9018 110.395 25.6055C110.474 25.3091 110.61 25.0311 110.796 24.7875C110.982 24.5438 111.215 24.3392 111.48 24.1855C111.745 24.0317 112.038 23.9317 112.342 23.8912C112.646 23.8507 112.955 23.8705 113.251 23.9495L113.347 23.975C113.72 24.0698 114.112 24.0507 114.474 23.9203C114.836 23.7898 115.151 23.554 115.377 23.2431L115.458 23.1963C115.682 22.8953 115.814 22.5352 115.836 22.1605C115.858 21.7857 115.771 21.4126 115.584 21.0871L115.484 20.9155C115.174 20.3801 115.089 19.7434 115.248 19.1453C115.407 18.5473 115.797 18.037 116.333 17.7266C116.868 17.4162 117.505 17.3312 118.103 17.4903C118.701 17.6494 119.211 18.0396 119.521 18.575L119.574 18.6658C119.764 18.9898 120.044 19.2514 120.38 19.4182C120.716 19.585 121.094 19.6499 121.467 19.6047C121.849 19.5626 122.21 19.4069 122.503 19.1577C122.796 18.9086 123.008 18.5773 123.111 18.2067L123.136 18.1111C123.215 17.8147 123.351 17.5367 123.537 17.2931C123.724 17.0494 123.956 16.8448 124.221 16.691C124.487 16.5373 124.78 16.4373 125.083 16.3968C125.387 16.3563 125.696 16.3761 125.993 16.4551C126.289 16.5338 126.567 16.6701 126.811 16.8563C127.054 17.0424 127.259 17.2748 127.413 17.5401C127.566 17.8054 127.666 18.0984 127.707 18.4023C127.747 18.7063 127.728 19.0152 127.649 19.3115L127.623 19.4072C127.528 19.7799 127.547 20.1726 127.678 20.5344C127.808 20.8962 128.044 21.2107 128.355 21.4372L128.402 21.518C128.703 21.7423 129.063 21.8738 129.438 21.8961C129.812 21.9184 130.185 21.8307 130.511 21.6437L130.683 21.5443C131.218 21.2339 131.855 21.1489 132.453 21.308C133.051 21.4671 133.561 21.8573 133.872 22.3926C134.182 22.928 134.267 23.5648 134.108 24.1628C133.949 24.7608 133.559 25.2712 133.023 25.5815L132.932 25.6342C132.608 25.8238 132.347 26.104 132.18 26.4403C132.013 26.7766 131.948 27.1544 131.993 27.5271V27.5271Z" stroke="white" stroke-width="2" stroke-linecap="round" stroke-linejoin="round"/>
<path d="M120.442 78.2735C123.246 78.6565 125.83 76.6936 126.213 73.8892C126.596 71.0847 124.633 68.5008 121.829 68.1177C119.025 67.7347 116.441 69.6976 116.058 72.502C115.675 75.3065 117.638 77.8904 120.442 78.2735Z" stroke="white" stroke-width="2" stroke-linecap="round" stroke-linejoin="round"/>
<path d="M132.967 79.9843C132.672 80.464 132.528 81.0211 132.552 81.5838C132.577 82.1465 132.77 82.6889 133.105 83.1411L133.193 83.2565C133.465 83.6139 133.663 84.0214 133.778 84.4556C133.892 84.8898 133.919 85.3423 133.859 85.7872C133.798 86.2321 133.65 86.6606 133.424 87.0483C133.197 87.436 132.896 87.7752 132.539 88.0467C132.181 88.3185 131.774 88.5172 131.34 88.6314C130.905 88.7456 130.453 88.7731 130.008 88.7124C129.563 88.6516 129.135 88.5038 128.747 88.2773C128.359 88.0508 128.02 87.7501 127.749 87.3924L127.661 87.277C127.315 86.8323 126.844 86.5013 126.309 86.3268C125.773 86.1522 125.198 86.1421 124.657 86.2977C124.127 86.4438 123.651 86.7418 123.288 87.1548C122.926 87.5679 122.691 88.078 122.615 88.6223L122.576 88.9101C122.453 89.8079 121.979 90.6202 121.257 91.1684C120.536 91.7165 119.626 91.9556 118.728 91.8329C117.83 91.7103 117.018 91.236 116.47 90.5145C115.922 89.7929 115.682 88.8832 115.805 87.9853L115.826 87.833C115.889 87.271 115.782 86.7028 115.518 86.2025C115.255 85.7022 114.847 85.2927 114.347 85.0275C113.867 84.7324 113.31 84.5879 112.747 84.6124C112.185 84.637 111.642 84.8295 111.19 85.1653L111.075 85.253C110.717 85.5248 110.31 85.7235 109.876 85.8377C109.441 85.9519 108.989 85.9794 108.544 85.9187C108.099 85.8579 107.671 85.7101 107.283 85.4836C106.895 85.2571 106.556 84.9564 106.285 84.5987C106.013 84.2413 105.814 83.8339 105.7 83.3996C105.586 82.9654 105.558 82.5129 105.619 82.068C105.68 81.6232 105.827 81.1946 106.054 80.8069C106.28 80.4193 106.581 80.08 106.939 79.8086L107.054 79.7209C107.499 79.3753 107.83 78.9044 108.004 78.3689C108.179 77.8334 108.189 77.2579 108.034 76.7166C107.887 76.1867 107.589 75.7111 107.176 75.3483C106.763 74.9856 106.253 74.7515 105.709 74.6749L105.421 74.6356C104.523 74.513 103.711 74.0387 103.163 73.3172C102.615 72.5956 102.376 71.6858 102.498 70.788C102.621 69.8902 103.095 69.0779 103.817 68.5297C104.538 67.9816 105.448 67.7425 106.346 67.8652L106.498 67.886C107.06 67.9494 107.628 67.8422 108.129 67.5785C108.629 67.3147 109.038 66.9066 109.304 66.407C109.599 65.9273 109.743 65.3701 109.719 64.8075C109.694 64.2448 109.502 63.7024 109.166 63.2502L109.078 63.1347C108.806 62.7774 108.608 62.3699 108.494 61.9357C108.379 61.5014 108.352 61.049 108.413 60.6041C108.473 60.1592 108.621 59.7307 108.848 59.343C109.074 58.9553 109.375 58.616 109.733 58.3446C110.09 58.0728 110.497 57.8741 110.932 57.7599C111.366 57.6457 111.818 57.6181 112.263 57.6789C112.708 57.7397 113.137 57.8875 113.524 58.114C113.912 58.3405 114.251 58.6412 114.523 58.9989L114.61 59.1143C114.956 59.559 115.427 59.89 115.962 60.0645C116.498 60.2391 117.073 60.2492 117.615 60.0936L117.75 60.1121C118.28 59.9659 118.756 59.668 119.118 59.255C119.481 58.8419 119.715 58.3318 119.792 57.7875L119.831 57.4997C119.954 56.6019 120.428 55.7896 121.149 55.2414C121.871 54.6933 122.781 54.4542 123.679 54.5768C124.576 54.6995 125.389 55.1737 125.937 55.8953C126.485 56.6169 126.724 57.5266 126.601 58.4244L126.581 58.5768C126.508 59.1217 126.597 59.6759 126.836 60.1711C127.075 60.6663 127.453 61.0809 127.924 61.3638C128.404 61.6589 128.961 61.8034 129.524 61.7789C130.086 61.7543 130.629 61.5617 131.081 61.226L131.196 61.1383C131.554 60.8665 131.961 60.6678 132.396 60.5536C132.83 60.4394 133.282 60.4118 133.727 60.4726C134.172 60.5334 134.601 60.6812 134.988 60.9077C135.376 61.1342 135.715 61.4349 135.987 61.7926C136.258 62.15 136.457 62.5574 136.571 62.9916C136.686 63.4259 136.713 63.8784 136.652 64.3232C136.592 64.7681 136.444 65.1966 136.217 65.5843C135.991 65.972 135.69 66.3113 135.332 66.5827L135.217 66.6704C134.772 67.016 134.441 67.4869 134.267 68.0224C134.092 68.5579 134.082 69.1333 134.238 69.6746L134.219 69.8101C134.365 70.34 134.663 70.8156 135.076 71.1784C135.489 71.5411 135.999 71.7752 136.544 71.8518L136.832 71.8911C137.729 72.0137 138.542 72.4879 139.09 73.2095C139.638 73.9311 139.877 74.8408 139.754 75.7387C139.632 76.6365 139.158 77.4488 138.436 77.997C137.714 78.5451 136.805 78.7842 135.907 78.6615L135.754 78.6407C135.209 78.5685 134.655 78.6572 134.16 78.8959C133.665 79.1346 133.25 79.5129 132.967 79.9843V79.9843Z" stroke="white" stroke-width="2" stroke-linecap="round" stroke-linejoin="round"/>
</g>
</g>
<defs>
<clipPath id="clip0_125_3820">
<rect width="150" height="100" fill="white"/>
</clipPath>
</defs>
</svg>
