<svg width="150" height="100" viewBox="0 0 150 100" fill="none" xmlns="http://www.w3.org/2000/svg">
<g clip-path="url(#clip0_106_3766)">
<g opacity="0.1">
<path d="M79.6332 42.3527L84.6298 49.2992C84.9439 49.7359 85.2104 50.1063 85.3945 50.4181C85.5805 50.733 85.7525 51.0985 85.7524 51.5127C85.7521 52.0817 85.51 52.6193 85.0872 52.9906C84.7793 53.2608 84.3955 53.3664 84.0403 53.428C83.6882 53.4889 83.2392 53.5245 82.7097 53.5664L71.2437 54.4744C70.9759 54.4957 70.7147 54.3733 70.5558 54.1524C70.3969 53.9315 70.3639 53.6449 70.4692 53.3978L74.9769 42.816C75.185 42.3272 75.3616 41.9129 75.5313 41.5985C75.7027 41.2813 75.9248 40.951 76.279 40.745C76.7654 40.4623 77.3521 40.4037 77.8916 40.5844C78.2844 40.7161 78.5762 40.9954 78.8156 41.2719C79.0526 41.5456 79.3191 41.916 79.6332 42.3527Z" stroke="white" stroke-width="2" stroke-linejoin="round"/>
<path d="M82.1316 45.8259L70.5559 54.1524" stroke="white" stroke-width="2" stroke-linejoin="round"/>
<path d="M27.8281 14.5367L48.8047 17.9553C50.1233 18.1702 51.2419 18.3525 52.1129 18.5765C52.9927 18.8026 53.9368 19.1423 54.6643 19.8697C55.6634 20.8692 56.1827 22.2384 56.0927 23.633C56.0269 24.6485 55.5385 25.508 55.023 26.2403C54.5119 26.9657 53.786 27.817 52.9298 28.8208L34.3932 50.5585C33.9603 51.0663 33.2868 51.3103 32.6196 51.2015C31.9525 51.0928 31.3913 50.6476 31.142 50.0286L20.4666 23.5302C19.9734 22.3065 19.5554 21.2688 19.301 20.4186C19.0447 19.5606 18.8545 18.5905 19.1145 17.6066C19.4719 16.2556 20.3991 15.1221 21.6638 14.4916C22.5847 14.0328 23.5878 14.0105 24.4938 14.0754C25.3909 14.1395 26.5095 14.3218 27.8281 14.5367Z" stroke="white" stroke-width="2" stroke-linejoin="round"/>
<path d="M38.3164 16.2461L32.6197 51.2016" stroke="white" stroke-width="2" stroke-linejoin="round"/>
<path d="M29.3709 69.5825L43.4405 64.7467C44.3249 64.4428 45.0752 64.1849 45.6866 64.0347C46.304 63.8829 46.9988 63.7799 47.6883 63.9877C48.6353 64.2734 49.4089 64.946 49.8151 65.8359C50.1107 66.4841 50.094 67.1759 50.0185 67.7982C49.9433 68.4148 49.7775 69.1801 49.5817 70.0827L45.345 89.6264C45.2461 90.0829 44.9115 90.4563 44.464 90.6101C44.0165 90.7639 43.523 90.6751 43.1644 90.3759L27.8078 77.5664C27.0985 76.975 26.4972 76.4733 26.0589 76.0332C25.6167 75.5888 25.1783 75.0534 25.013 74.3605C24.7861 73.4089 24.9828 72.4029 25.5541 71.5953C25.9701 71.0075 26.5814 70.6617 27.1617 70.4018C27.7363 70.1443 28.4866 69.8865 29.3709 69.5825Z" stroke="white" stroke-width="2" stroke-linejoin="round"/>
<path d="M36.4058 67.1647L44.4641 90.6102" stroke="white" stroke-width="2" stroke-linejoin="round"/>
<path d="M112.939 23.7392L123.236 17.7699C123.883 17.3946 124.432 17.0763 124.889 16.864C125.35 16.6494 125.88 16.4612 126.453 16.5178C127.241 16.5958 127.952 17.0042 128.408 17.64C128.74 18.1031 128.834 18.6487 128.871 19.1488C128.907 19.6444 128.895 20.2708 128.881 21.0095L128.575 37.0047C128.568 37.3783 128.363 37.7231 128.035 37.913C127.708 38.1028 127.307 38.1094 126.979 37.9299L112.946 30.2476C112.298 29.8929 111.748 29.592 111.336 29.3143C110.92 29.0338 110.494 28.6813 110.257 28.1629C109.932 27.451 109.931 26.6309 110.254 25.9088C110.49 25.3831 110.917 25.0172 111.332 24.7236C111.743 24.4328 112.292 24.1144 112.939 23.7392Z" stroke="white" stroke-width="2" stroke-linejoin="round"/>
<path d="M118.088 20.7545L128.035 37.913" stroke="white" stroke-width="2" stroke-linejoin="round"/>
<path d="M114.351 58.4754L131.619 60.8339C132.704 60.9821 133.625 61.1079 134.344 61.2731C135.07 61.4398 135.851 61.6982 136.463 62.2792C137.303 63.0773 137.757 64.1887 137.713 65.3338C137.681 66.1676 137.298 66.8825 136.891 67.4937C136.488 68.0991 135.911 68.8123 135.23 69.6533L120.495 87.8645C120.151 88.2899 119.604 88.5042 119.055 88.4291C118.506 88.3541 118.036 88.0011 117.819 87.4989L108.507 66.0034C108.077 65.0107 107.712 64.1689 107.486 63.4774C107.258 62.7794 107.081 61.9883 107.274 61.1762C107.538 60.0612 108.274 59.1125 109.297 58.5688C110.042 58.1732 110.864 58.1337 111.608 58.1678C112.345 58.2014 113.266 58.3272 114.351 58.4754Z" stroke="white" stroke-width="2" stroke-linejoin="round"/>
<path d="M122.985 59.6547L119.055 88.4292" stroke="white" stroke-width="2" stroke-linejoin="round"/>
</g>
</g>
<defs>
<clipPath id="clip0_106_3766">
<rect width="150" height="100" fill="white"/>
</clipPath>
</defs>
</svg>
